<svg xmlns="http://www.w3.org/2000/svg" width="154" height="154" viewBox="0 0 154 154">
  <g id="圖層_1" data-name="圖層 1">
    <g>
      <circle cx="77" cy="77" r="77" fill="#f6f7ff"/>
      <g>
        <rect x="31.82" y="66.34" width="90.43" height="58.83" fill="#fba92e"/>
        <polyline points="31.82 125.17 58.49 83.72 95.59 83.72 122.25 125.17" fill="none" stroke="#fff" stroke-miterlimit="10" stroke-width="0.33"/>
        <path d="M122.26,66.4,79.37,38.45a4.28,4.28,0,0,0-4.66,0l-42.89,28" fill="#fba92e"/>
        <polyline points="31.66 66.38 58.27 83.79 95.73 83.79 122.34 66.38" fill="none" stroke="#fff" stroke-miterlimit="10" stroke-width="0.33"/>
        <polygon points="95.73 83.79 109.53 74.76 109.53 23.99 44.47 23.99 44.47 74.76 58.27 83.79 95.73 83.79" fill="#fff"/>
        <rect x="51.1" y="35.46" width="51.8" height="4.41" rx="2.21" fill="#b7c2f4"/>
        <rect x="51.1" y="44.63" width="51.8" height="4.41" rx="2.21" fill="#b7c2f4"/>
        <rect x="51.1" y="53.81" width="51.8" height="4.41" rx="2.21" fill="#b7c2f4"/>
        <rect x="51.1" y="62.98" width="51.8" height="4.41" rx="2.21" fill="#b7c2f4"/>
        <rect x="51.1" y="72.15" width="51.8" height="4.41" rx="2.21" fill="#b7c2f4"/>
      </g>
    </g>
  </g>
</svg>
